<svg data-v-423bf9ae="" xmlns="http://www.w3.org/2000/svg" viewBox="0 0 93.22448558031533 178" class="iconAboveSlogan"><!----><!----><!----><g data-v-423bf9ae="" id="b26e9486-0074-426d-906d-a5c4971a104d" fill="#000000" transform="matrix(2.040816220610938,0,0,2.040816220610938,8.621860843049944e-7,108.69387431663061)"><path d="M0 7.45L0 7.45Q0 5.64 0.41 4.25Q0.83 2.86 1.53 1.91Q2.23 0.97 3.14 0.48Q4.06 0 5.07 0L5.07 0L6.37 0.08Q6.75 0.08 6.87 0.04L6.87 0.04Q6.94 0.03 6.99 0L6.99 0L7.06 0Q6.94 0.29 6.85 0.59Q6.75 0.90 6.66 1.23Q6.58 1.57 6.52 1.96Q6.47 2.35 6.44 2.84L6.44 2.84L6.29 2.84Q6.29 2.58 6.16 2.20Q6.03 1.82 5.75 1.47Q5.47 1.12 5.00 0.88Q4.52 0.63 3.84 0.63L3.84 0.63Q2.67 0.63 2.14 2.02Q1.61 3.40 1.61 6.06L1.61 6.06Q1.61 6.78 1.70 7.57Q1.79 8.36 1.98 9.13Q2.17 9.91 2.46 10.62Q2.74 11.33 3.14 11.87Q3.53 12.40 4.03 12.73Q4.52 13.05 5.14 13.05L5.14 13.05Q5.66 13.05 5.99 12.90Q6.31 12.75 6.51 12.56L6.51 12.56Q6.73 12.33 6.83 12.05L6.83 12.05L6.99 12.21Q6.75 12.71 6.33 13.09L6.33 13.09Q5.96 13.43 5.40 13.70Q4.83 13.97 3.99 13.97L3.99 13.97Q3.61 13.97 3.16 13.86Q2.72 13.75 2.27 13.46Q1.83 13.17 1.42 12.70Q1.01 12.22 0.69 11.49Q0.38 10.77 0.19 9.77Q0 8.78 0 7.45ZM9.67 9.66L9.67 9.66Q9.67 10.08 9.83 10.59Q10.00 11.10 10.37 11.54Q10.75 11.98 11.36 12.29Q11.97 12.59 12.85 12.59L12.85 12.59Q13.31 12.59 13.58 12.46Q13.85 12.33 13.97 12.14Q14.10 11.96 14.13 11.75Q14.17 11.54 14.17 11.35L14.17 11.35Q14.17 10.75 13.94 10.16Q13.71 9.58 13.30 9.11Q12.89 8.65 12.34 8.37Q11.79 8.09 11.14 8.09L11.14 8.09Q10.72 8.09 10.44 8.25Q10.16 8.41 9.99 8.66Q9.81 8.90 9.74 9.18Q9.67 9.45 9.67 9.66ZM12.75 7L12.75 7Q13.17 7 13.66 7.18Q14.14 7.36 14.55 7.73Q14.97 8.09 15.23 8.66Q15.50 9.23 15.50 9.98L15.50 9.98Q15.50 10.42 15.29 10.88Q15.09 11.34 14.76 11.79Q14.43 12.24 14.01 12.63Q13.58 13.03 13.13 13.34Q12.67 13.64 12.21 13.82Q11.76 14 11.38 14L11.38 14Q10.81 14 10.28 13.76Q9.76 13.52 9.35 13.12Q8.95 12.71 8.70 12.19Q8.46 11.66 8.46 11.07L8.46 11.07Q8.46 10.28 8.89 9.54Q9.32 8.81 9.97 8.24Q10.61 7.67 11.36 7.34Q12.11 7 12.75 7ZM14.70 3.33L14.70 3.33Q14.70 2.83 15.10 2.33Q15.50 1.83 16.12 1.39Q16.74 0.95 17.50 0.60Q18.26 0.25 18.96 0.04L18.96 0.04Q18.42 0.21 17.93 0.48Q17.44 0.74 17.07 1.06Q16.69 1.37 16.46 1.71Q16.23 2.06 16.23 2.38L16.23 2.38Q16.23 2.76 16.47 3.18Q16.72 3.60 17.10 4.03Q17.49 4.45 17.97 4.86Q18.45 5.26 18.93 5.61Q19.42 5.95 19.84 6.22Q20.27 6.50 20.57 6.64L20.57 6.64Q20.85 6.78 21.21 6.92Q21.57 7.07 21.96 7.26Q22.34 7.45 22.72 7.69Q23.10 7.94 23.39 8.27Q23.69 8.61 23.87 9.04Q24.05 9.48 24.05 10.05L24.05 10.05Q24.05 10.51 23.91 10.91Q23.77 11.30 23.53 11.63Q23.30 11.97 23.00 12.26Q22.69 12.54 22.36 12.81L22.36 12.81Q21.69 13.34 21.07 13.68Q20.45 14.01 19.80 14.01L19.80 14.01Q19.25 14.01 18.79 13.79Q18.33 13.57 18.00 13.21Q17.68 12.85 17.50 12.41Q17.32 11.97 17.32 11.54L17.32 11.54Q17.32 10.92 17.46 10.51Q17.60 10.09 17.83 9.81Q18.06 9.53 18.35 9.34Q18.65 9.14 18.96 8.96L18.96 8.96Q19.24 8.74 19.52 8.57Q19.81 8.40 20.15 8.29L20.15 8.29Q19.64 8.04 19.17 7.78Q18.69 7.52 18.33 7.24L18.33 7.24Q18.06 7.06 17.69 6.80Q17.32 6.55 16.92 6.25Q16.52 5.95 16.12 5.60Q15.72 5.25 15.41 4.88Q15.09 4.51 14.90 4.12Q14.70 3.72 14.70 3.33ZM22.48 10.91L22.48 10.91Q22.48 10.47 22.31 10.12Q22.13 9.76 21.84 9.46Q21.55 9.16 21.15 8.90Q20.76 8.65 20.33 8.43L20.33 8.43Q20.08 8.47 19.80 8.62Q19.53 8.76 19.31 9.00Q19.10 9.24 18.95 9.55Q18.80 9.87 18.80 10.25L18.80 10.25Q18.80 10.70 18.97 11.12Q19.14 11.55 19.46 11.89Q19.78 12.22 20.25 12.43Q20.72 12.63 21.34 12.63L21.34 12.63Q21.81 12.63 22.06 12.51Q22.30 12.39 22.39 12.17Q22.48 11.94 22.48 11.62Q22.48 11.30 22.48 10.91ZM30.37 12.49L30.37 12.49Q30.77 12.49 31.13 12.38Q31.49 12.28 31.75 12.14L31.75 12.14Q32.06 11.98 32.33 11.79L32.33 11.79Q31.95 12.42 31.42 12.91L31.42 12.91Q30.97 13.33 30.29 13.67Q29.61 14.01 28.71 14.01L28.71 14.01Q28.07 14.01 27.48 13.79Q26.89 13.57 26.44 13.15Q25.98 12.73 25.72 12.12Q25.45 11.51 25.45 10.75L25.45 10.75Q25.45 10.07 25.67 9.54Q25.89 9.02 26.24 8.62Q26.59 8.23 27.02 7.97Q27.45 7.71 27.87 7.55L27.87 7.55Q29.22 7 29.71 7L29.71 7Q30.23 7 30.61 7.17Q31.00 7.35 31.28 7.56L31.28 7.56Q31.58 7.81 31.82 8.12L31.82 8.12L27.20 9.98Q27.30 10.57 27.48 11.03Q27.66 11.49 28.01 11.82Q28.36 12.14 28.92 12.31Q29.48 12.49 30.37 12.49ZM28.10 7.81L28.10 7.81Q27.90 7.81 27.72 7.92Q27.54 8.02 27.39 8.19Q27.24 8.36 27.17 8.57Q27.09 8.78 27.10 8.99L27.10 8.99Q27.10 9.21 27.11 9.42Q27.12 9.63 27.16 9.84L27.16 9.84L29.51 8.76Q29.37 8.50 29.16 8.29L29.16 8.29Q28.98 8.11 28.71 7.96Q28.45 7.81 28.10 7.81ZM33.96 6.99L33.96 6.99Q33.96 5.42 33.96 4.28Q33.96 3.14 33.95 2.32Q33.94 1.50 33.88 0.95Q33.82 0.41 33.73 0.01L33.73 0.01Q34.69 0.01 35.36-0.34Q36.02-0.70 36.58-1.18L36.58-1.18Q36.30-0.77 36.11-0.45Q35.91-0.13 35.84 0.10L35.84 0.10Q35.69 0.59 35.60 1.33Q35.52 2.07 35.48 2.98Q35.43 3.89 35.43 4.91Q35.42 5.94 35.42 6.99L35.42 6.99Q35.42 8.05 35.38 8.79Q35.34 9.52 35.31 10.04Q35.29 10.57 35.31 10.93Q35.34 11.28 35.46 11.59L35.46 11.59Q35.56 11.79 35.67 11.97Q35.78 12.15 35.94 12.31Q36.09 12.47 36.29 12.58Q36.48 12.68 36.75 12.70L36.75 12.70Q36.22 13.08 35.80 13.40Q35.39 13.72 35.06 14.04L35.06 14.04Q34.79 13.90 34.58 13.69Q34.37 13.47 34.22 13.23Q34.08 12.99 33.98 12.75Q33.89 12.52 33.87 12.33L33.87 12.33Q33.84 11.80 33.85 11.30Q33.87 10.79 33.89 10.19Q33.92 9.59 33.94 8.82Q33.96 8.05 33.96 6.99ZM44.51-2.79L44.51-2.79Q44.95-2.79 45.23-2.71Q45.51-2.63 45.68-2.58L45.68-2.58Q45.46-2.30 45.19-1.90Q44.93-1.51 44.87-1.12L44.87-1.12Q44.70-1.27 44.45-1.41L44.45-1.41Q44.23-1.53 43.87-1.62Q43.51-1.71 42.99-1.71L42.99-1.71Q42.28-1.71 41.80-1.58Q41.33-1.44 41.03-1.22Q40.74-0.99 40.59-0.72Q40.43-0.45 40.38-0.17L40.38-0.17Q40.32 0.03 40.26 0.58Q40.21 1.13 40.16 1.88Q40.11 2.63 40.07 3.50Q40.03 4.37 40.00 5.19Q39.97 6.02 39.97 6.72Q39.97 7.42 40.01 7.84L40.01 7.84Q40.45 8.01 40.95 8.06Q41.45 8.12 41.87 8.12L41.87 8.12Q42.36 8.12 42.85 8.06L42.85 8.06Q42.38 8.25 41.89 8.40L41.89 8.40Q41.47 8.53 40.97 8.64Q40.47 8.75 40.01 8.78L40.01 8.78Q40.01 9.20 40.00 10.19Q39.98 11.19 39.96 12.52Q39.93 13.85 39.89 15.41Q39.86 16.97 39.83 18.54L39.83 18.54Q39.76 22.22 39.66 26.61L39.66 26.61Q39.49 22.04 39.37 18.28L39.37 18.28Q39.33 17.22 39.29 16.16Q39.26 15.09 39.22 14.11Q39.19 13.12 39.16 12.24Q39.13 11.35 39.12 10.65Q39.10 9.95 39.09 9.46Q39.07 8.97 39.07 8.78L39.07 8.78Q38.82 8.78 38.54 8.71Q38.26 8.65 38.02 8.57L38.02 8.57Q37.74 8.47 37.48 8.34L37.48 8.34Q37.77 8.37 38.05 8.33L38.05 8.33Q38.29 8.30 38.57 8.22Q38.85 8.15 39.07 7.98L39.07 7.98Q39.06 7.50 39.02 6.85Q38.98 6.20 38.93 5.45Q38.88 4.70 38.82 3.91Q38.77 3.11 38.72 2.35Q38.67 1.58 38.63 0.90Q38.58 0.21 38.57-0.32L38.57-0.32Q38.75-0.32 38.94-0.39Q39.13-0.46 39.37-0.61Q39.61-0.76 39.92-0.99Q40.24-1.22 40.67-1.55L40.67-1.55Q41.54-2.21 42.48-2.50Q43.41-2.79 44.51-2.79Z"></path></g><defs data-v-423bf9ae=""><linearGradient data-v-423bf9ae="" gradientTransform="rotate(25)" id="067c9126-5d39-4f47-b5ea-c8c1aabe0102" x1="0%" y1="0%" x2="100%" y2="0%"><stop data-v-423bf9ae="" offset="0%" style="stop-color: rgb(233, 142, 13); stop-opacity: 1;"></stop><stop data-v-423bf9ae="" offset="100%" style="stop-color: rgb(21, 54, 241); stop-opacity: 1;"></stop></linearGradient></defs><g data-v-423bf9ae="" id="f6c13f4f-de69-44c1-a75d-b679530760d2" transform="matrix(2.8125,0,0,2.8125,2,0)" stroke="none" fill="url(#067c9126-5d39-4f47-b5ea-c8c1aabe0102)"><path d="M4.029 14.362L14.362 4.028l.707.707L4.736 15.07zM17.135 27.47L27.47 17.135l.707.707-10.333 10.333zM4.029 17.841l.707-.707 10.333 10.334-.707.707zM17.135 4.735l.708-.707L28.176 14.36l-.707.707z"></path><g><path d="M16 1.414l1.683 1.683L16 4.779l-1.683-1.683L16 1.414M16 0l-3.097 3.097L16 6.194l3.097-3.097L16 0zM16 27.221l1.683 1.683L16 30.586l-1.683-1.683L16 27.221m0-1.415l-3.097 3.097L16 32l3.097-3.097L16 25.806zM3.097 14.317L4.779 16l-1.683 1.683L1.414 16l1.683-1.683m0-1.414L0 16l3.097 3.097L6.194 16l-3.097-3.097zM28.903 14.317L30.586 16l-1.683 1.683L27.221 16l1.682-1.683m0-1.414L25.806 16l3.097 3.097L32 16l-3.097-3.097z"></path></g></g><!----><g data-v-423bf9ae="" id="f4203dfb-2282-499c-9f01-6ee8e85d4419" fill="#000000" transform="matrix(0.1794665144525761,0,0,0.1794665144525761,13.337260751944946,207.9791832326086)"><path d="M7.28 9.34L7.28 9.34Q7.73 9.34 7.99 9.59Q8.25 9.84 8.25 10.29L8.25 10.29Q8.25 10.40 8.23 10.52Q8.22 10.64 8.18 10.72L8.18 10.72Q7.99 10.70 7.77 10.68Q7.55 10.65 7.24 10.65L7.24 10.65Q6.61 10.65 5.98 10.77Q5.35 10.88 4.77 10.95L4.77 10.95Q4.14 12.43 3.74 13.73Q3.33 15.04 3.11 16.31L3.11 16.31Q2.63 16.20 2.27 15.90Q1.90 15.61 1.58 15.08L1.58 15.08Q1.68 14.85 1.82 14.54Q1.96 14.22 2.16 13.74Q2.35 13.26 2.63 12.56Q2.90 11.87 3.28 10.91L3.28 10.91Q2.69 10.71 2.51 10.22L2.51 10.22Q2.58 10.15 2.90 10.06Q3.22 9.97 3.68 9.86L3.68 9.86Q3.89 9.31 4.05 8.88Q4.20 8.46 4.33 8.07Q4.45 7.69 4.56 7.32Q4.66 6.94 4.75 6.52L4.75 6.52L4.68 6.52Q4.14 6.52 3.81 6.27Q3.49 6.02 3.49 5.61L3.49 5.61Q3.49 5.50 3.52 5.35Q3.56 5.19 3.61 5.08L3.61 5.08Q3.88 5.12 4.14 5.14Q4.40 5.15 4.82 5.15L4.82 5.15Q5.70 5.15 6.47 5.10Q7.24 5.05 7.86 5.00Q8.48 4.94 8.93 4.89Q9.38 4.84 9.62 4.84L9.62 4.84Q9.94 4.84 10.19 5.18Q10.44 5.52 10.58 6.13L10.58 6.13Q10.14 6.09 9.86 6.08Q9.59 6.06 9.38 6.06L9.38 6.06Q8.67 6.06 8.07 6.13Q7.48 6.19 6.94 6.27L6.94 6.27Q6.86 6.40 6.75 6.59Q6.65 6.79 6.48 7.15Q6.31 7.50 6.05 8.08Q5.80 8.65 5.40 9.53L5.40 9.53Q5.95 9.45 6.45 9.39Q6.94 9.34 7.28 9.34ZM25.65 7.46L25.65 7.46Q25.65 8.13 25.35 8.73Q25.05 9.32 24.51 9.79Q23.98 10.26 23.27 10.58Q22.55 10.91 21.71 11.02L21.71 11.02Q21.92 11.65 22.23 12.31Q22.53 12.98 22.88 13.59Q23.23 14.21 23.60 14.73Q23.98 15.25 24.35 15.58L24.35 15.58Q24.28 15.72 24.14 15.86Q24.01 16.00 23.84 16.12Q23.66 16.24 23.47 16.32Q23.28 16.39 23.11 16.39L23.11 16.39Q22.81 16.39 22.53 16.10Q22.25 15.81 21.96 15.17Q21.67 14.53 21.36 13.52Q21.04 12.50 20.66 11.07L20.66 11.07Q20.51 11.07 20.36 11.07Q20.20 11.07 20.12 11.05L20.12 11.05Q20.02 10.99 19.91 10.85L19.91 10.85Q19.53 11.66 19.24 12.38Q18.94 13.09 18.71 13.76Q18.48 14.42 18.30 15.04Q18.13 15.67 18.00 16.31L18.00 16.31Q17.53 16.20 17.18 15.90Q16.83 15.61 16.52 15.08L16.52 15.08Q16.58 14.95 16.64 14.83Q16.70 14.71 16.80 14.50Q16.90 14.28 17.05 13.94Q17.19 13.61 17.44 13.05Q17.68 12.49 18.02 11.68Q18.37 10.86 18.86 9.70L18.86 9.70Q19.08 9.18 19.24 8.79Q19.40 8.40 19.53 8.04Q19.66 7.69 19.76 7.33Q19.87 6.97 19.98 6.51L19.98 6.51Q19.33 6.73 18.78 7.01Q18.23 7.28 17.86 7.59L17.86 7.59Q17.74 7.50 17.61 7.34Q17.47 7.17 17.36 6.96Q17.25 6.76 17.16 6.55Q17.08 6.34 17.07 6.17L17.07 6.17Q17.49 5.89 18.09 5.66Q18.70 5.42 19.39 5.24Q20.08 5.07 20.79 4.97Q21.50 4.87 22.12 4.87L22.12 4.87Q23.80 4.87 24.72 5.56Q25.65 6.26 25.65 7.46ZM22.06 6.02L22.23 6.29Q22.13 6.41 21.92 6.79Q21.71 7.17 21.44 7.69Q21.17 8.22 20.87 8.83Q20.57 9.45 20.29 10.05L20.29 10.05Q21.34 10.05 22.22 9.86Q23.10 9.66 23.74 9.30Q24.39 8.95 24.75 8.46Q25.10 7.98 25.10 7.39L25.10 7.39Q25.10 6.69 24.60 6.32Q24.09 5.95 23.04 5.95L23.04 5.95Q22.81 5.95 22.57 5.97Q22.33 5.99 22.06 6.02L22.06 6.02ZM39.14 4.98L39.14 4.98Q39.41 5.10 39.69 5.27Q39.97 5.45 40.21 5.63Q40.45 5.81 40.61 5.98Q40.77 6.16 40.78 6.27L40.78 6.27Q40.54 6.22 40.31 6.20Q40.07 6.17 39.87 6.17L39.87 6.17Q39.24 6.17 38.62 6.48Q38.00 6.79 37.44 7.32Q36.88 7.85 36.40 8.57Q35.92 9.28 35.58 10.09Q35.24 10.91 35.04 11.77Q34.85 12.64 34.85 13.48L34.85 13.48Q34.85 14.57 35.21 15.11Q35.57 15.64 36.27 15.64L36.27 15.64Q36.61 15.64 37.00 15.51Q37.39 15.37 37.80 15.13Q38.21 14.90 38.60 14.56Q38.99 14.22 39.33 13.82L39.33 13.82Q39.82 13.23 40.21 12.48Q40.60 11.73 40.87 10.89Q41.15 10.05 41.29 9.16Q41.44 8.27 41.44 7.42L41.44 7.42Q41.44 7.08 41.43 6.85Q41.41 6.62 41.39 6.46Q41.37 6.30 41.36 6.20Q41.34 6.10 41.33 6.03L41.33 6.03Q41.50 6.12 41.70 6.24Q41.90 6.36 42.08 6.59Q42.25 6.82 42.37 7.20Q42.49 7.57 42.49 8.18L42.49 8.18Q42.49 9.16 42.26 10.10Q42.03 11.05 41.62 11.90Q41.20 12.75 40.64 13.50Q40.08 14.24 39.44 14.80L39.44 14.80Q38.60 15.54 37.65 15.95Q36.69 16.35 35.81 16.35L35.81 16.35Q34.52 16.35 33.84 15.53Q33.17 14.71 33.17 13.12L33.17 13.12Q33.17 12.26 33.35 11.31Q33.54 10.36 33.89 9.44Q34.23 8.51 34.71 7.68Q35.18 6.85 35.75 6.21Q36.32 5.57 36.97 5.19Q37.62 4.82 38.30 4.82L38.30 4.82Q38.53 4.82 38.72 4.85Q38.92 4.89 39.14 4.98ZM55.59 16.21L55.59 16.21Q55.57 16.23 55.54 16.23Q55.51 16.23 55.43 16.23L55.43 16.23Q55.23 16.23 54.97 16.16Q54.71 16.10 54.47 16.01Q54.22 15.92 54.05 15.81Q53.87 15.69 53.83 15.61L53.83 15.61Q53.82 15.41 53.82 15.20Q53.82 14.99 53.82 14.80L53.82 14.80Q53.82 13.23 54.05 11.52Q54.28 9.81 54.81 7.83L54.81 7.83Q54.87 7.63 54.93 7.33Q54.99 7.03 55.06 6.68L55.06 6.68Q54.73 6.94 54.26 7.53Q53.80 8.11 53.29 8.90Q52.78 9.69 52.27 10.63Q51.76 11.58 51.34 12.55Q50.92 13.52 50.62 14.48Q50.32 15.43 50.25 16.24L50.25 16.24Q49.57 16.04 49.31 15.85Q49.06 15.65 49.06 15.37L49.06 15.37Q49.06 15.12 49.21 14.66Q49.36 14.20 49.64 13.57Q49.92 12.94 50.33 12.16Q50.74 11.38 51.23 10.49L51.23 10.49Q51.79 9.46 52.32 8.57Q52.86 7.67 53.38 6.94Q53.90 6.22 54.40 5.68Q54.89 5.15 55.38 4.87L55.38 4.87Q55.58 4.87 55.91 4.97Q56.24 5.07 56.55 5.21Q56.87 5.35 57.11 5.49Q57.36 5.64 57.39 5.74L57.39 5.74Q57.19 6.13 56.92 6.92Q56.66 7.70 56.38 8.69Q56.11 9.69 55.87 10.80Q55.62 11.91 55.48 12.94L55.48 12.94Q55.80 12.17 56.23 11.33Q56.66 10.50 57.13 9.68Q57.61 8.86 58.11 8.09Q58.60 7.32 59.08 6.69Q59.56 6.05 59.97 5.57Q60.38 5.10 60.70 4.87L60.70 4.87Q60.90 4.87 61.23 4.97Q61.56 5.07 61.87 5.21Q62.19 5.35 62.43 5.49Q62.68 5.64 62.71 5.74L62.71 5.74Q62.26 6.54 61.92 7.69Q61.59 8.83 61.35 10.09Q61.12 11.35 61.00 12.59Q60.89 13.83 60.89 14.81L60.89 14.81Q60.89 15.13 60.89 15.48Q60.89 15.83 60.91 16.21L60.91 16.21Q60.72 16.21 60.44 16.16Q60.17 16.11 59.91 16.03Q59.65 15.95 59.44 15.84Q59.23 15.74 59.15 15.61L59.15 15.61Q59.14 15.41 59.14 15.20Q59.14 14.99 59.14 14.80L59.14 14.80Q59.14 13.23 59.37 11.52Q59.60 9.81 60.13 7.83L60.13 7.83Q60.19 7.63 60.26 7.29Q60.33 6.96 60.40 6.59L60.40 6.59Q60.00 6.79 59.51 7.34Q59.01 7.90 58.50 8.69Q57.99 9.48 57.49 10.44Q56.99 11.41 56.59 12.41Q56.20 13.41 55.92 14.40Q55.65 15.39 55.59 16.21ZM83.59 10.74L83.59 10.74Q84.46 9.45 85.31 8.37Q86.16 7.28 86.93 6.50Q87.70 5.71 88.34 5.28Q88.98 4.84 89.46 4.84L89.46 4.84Q89.64 4.84 89.86 4.98Q90.08 5.12 90.26 5.35Q90.45 5.57 90.58 5.83Q90.71 6.09 90.71 6.33L90.71 6.33Q89.84 6.61 89.00 7.06Q88.17 7.52 87.41 8.11Q86.65 8.71 85.95 9.44Q85.26 10.16 84.70 10.99L84.70 10.99Q84.92 11.56 85.25 12.21Q85.58 12.87 85.97 13.47Q86.37 14.08 86.81 14.60Q87.26 15.12 87.72 15.43L87.72 15.43Q87.65 15.58 87.49 15.72Q87.32 15.86 87.12 15.98Q86.93 16.10 86.71 16.17Q86.49 16.24 86.31 16.24L86.31 16.24Q85.95 16.24 85.64 15.90Q85.33 15.55 85.01 14.86Q84.70 14.17 84.36 13.14Q84.01 12.11 83.59 10.74ZM81.48 16.31L81.48 16.31Q80.95 16.18 80.60 15.87Q80.25 15.55 79.95 15.08L79.95 15.08Q80.08 14.81 80.25 14.38Q80.43 13.94 80.68 13.31Q80.93 12.67 81.28 11.78Q81.63 10.89 82.10 9.70L82.10 9.70Q82.39 8.95 82.58 8.43Q82.77 7.91 82.90 7.41Q83.03 6.92 83.16 6.31Q83.29 5.71 83.45 4.79L83.45 4.79Q84.04 4.90 84.52 5.31Q85.01 5.71 85.36 6.29L85.36 6.29Q85.20 6.48 85.00 6.88Q84.80 7.28 84.55 7.84Q84.29 8.40 83.99 9.09Q83.68 9.77 83.34 10.54L83.34 10.54Q82.59 12.22 82.15 13.62Q81.72 15.01 81.48 16.31ZM102.26 9.21L102.26 9.21Q102.72 9.21 102.98 9.46Q103.24 9.72 103.24 10.16L103.24 10.16Q103.24 10.28 103.21 10.39Q103.19 10.51 103.17 10.60L103.17 10.60Q102.98 10.57 102.76 10.55Q102.54 10.53 102.23 10.53L102.23 10.53Q101.63 10.53 101.01 10.63Q100.39 10.74 99.83 10.81L99.83 10.81Q99.51 11.55 99.25 12.24Q98.98 12.94 98.79 13.51Q98.60 14.08 98.50 14.50Q98.39 14.92 98.38 15.13L98.38 15.13Q99.51 14.90 100.67 14.73Q101.82 14.56 103.10 14.48L103.10 14.48Q103.25 14.71 103.35 14.99Q103.46 15.27 103.46 15.60L103.46 15.60Q103.46 15.68 103.46 15.78Q103.46 15.88 103.43 15.97L103.43 15.97Q103.04 15.96 102.61 15.95Q102.17 15.95 101.47 15.95L101.47 15.95Q101.01 15.95 100.60 15.97Q100.18 15.99 99.76 16.03Q99.34 16.07 98.87 16.14Q98.41 16.21 97.82 16.31L97.82 16.31Q97.17 16.06 96.57 15.08L96.57 15.08Q96.81 14.57 97.24 13.54Q97.66 12.52 98.32 10.79L98.32 10.79Q97.69 10.60 97.50 10.09L97.50 10.09Q97.57 10.02 97.90 9.92Q98.24 9.81 98.73 9.70L98.73 9.70Q98.94 9.16 99.08 8.75Q99.23 8.34 99.34 7.99Q99.46 7.63 99.55 7.29Q99.64 6.94 99.72 6.54L99.72 6.54Q99.23 6.51 98.95 6.27Q98.67 6.02 98.67 5.63L98.67 5.63Q98.67 5.52 98.71 5.36Q98.74 5.21 98.78 5.10L98.78 5.10Q99.06 5.14 99.32 5.15Q99.58 5.17 100.00 5.17L100.00 5.17Q100.88 5.17 101.65 5.12Q102.42 5.07 103.05 5.01Q103.67 4.96 104.12 4.91Q104.57 4.86 104.80 4.86L104.80 4.86Q105.13 4.86 105.38 5.19Q105.63 5.53 105.76 6.15L105.76 6.15Q105.32 6.10 105.05 6.09Q104.78 6.08 104.57 6.08L104.57 6.08Q103.80 6.08 103.16 6.15Q102.52 6.23 101.93 6.31L101.93 6.31Q101.85 6.44 101.74 6.64Q101.64 6.83 101.47 7.18Q101.30 7.53 101.06 8.06Q100.81 8.60 100.46 9.39L100.46 9.39Q101.00 9.31 101.46 9.26Q101.93 9.21 102.26 9.21ZM116.96 10.35L116.96 10.35Q118.01 9.20 118.84 7.91Q119.67 6.62 120.39 5.01L120.39 5.01Q120.75 5.05 121.09 5.21Q121.42 5.36 121.62 5.56L121.62 5.56Q120.85 6.48 120.22 7.24Q119.60 7.99 119.08 8.66Q118.57 9.32 118.12 9.93Q117.68 10.54 117.26 11.16L117.26 11.16Q117.05 11.87 116.87 12.60Q116.69 13.33 116.55 13.99Q116.41 14.66 116.33 15.22Q116.26 15.79 116.26 16.20L116.26 16.20Q116.10 16.20 115.77 16.14Q115.43 16.07 115.08 15.99Q114.73 15.90 114.44 15.82Q114.16 15.74 114.10 15.68L114.10 15.68Q114.32 15.30 114.54 14.75Q114.76 14.20 114.97 13.59Q115.18 12.98 115.37 12.36Q115.57 11.73 115.74 11.20L115.74 11.20Q115.39 10.11 115.06 9.15Q114.73 8.19 114.42 7.41Q114.11 6.64 113.83 6.08Q113.55 5.52 113.30 5.22L113.30 5.22Q113.44 5.17 113.73 5.11Q114.02 5.05 114.36 5.00Q114.70 4.94 115.06 4.91Q115.42 4.87 115.70 4.86L115.70 4.86Q115.70 5.21 115.76 5.71Q115.82 6.22 115.93 6.79Q116.03 7.36 116.17 7.95Q116.31 8.54 116.45 9.03Q116.59 9.52 116.72 9.88Q116.86 10.23 116.96 10.35ZM136.35 5.74L136.35 5.74Q136.39 5.98 136.41 6.07Q136.43 6.16 136.43 6.31L136.43 6.31Q136.43 6.78 136.23 7.18Q136.02 7.57 135.67 7.74L135.67 7.74Q135.39 7.36 134.99 7.09Q134.58 6.82 134.10 6.64Q133.62 6.47 133.10 6.38Q132.58 6.30 132.09 6.30L132.09 6.30Q131.60 6.30 131.17 6.38Q130.75 6.45 130.42 6.59Q130.09 6.72 129.90 6.92Q129.71 7.11 129.71 7.36L129.71 7.36Q129.75 7.67 130.09 7.99Q130.42 8.30 130.91 8.60Q131.40 8.90 132.00 9.20Q132.59 9.49 133.17 9.76L133.17 9.76Q133.88 10.09 134.40 10.38Q134.92 10.67 135.25 11.01Q135.59 11.35 135.76 11.79Q135.93 12.22 135.93 12.84L135.93 12.84Q135.93 13.55 135.69 14.18Q135.45 14.80 135.00 15.26Q134.54 15.72 133.90 15.98Q133.25 16.24 132.45 16.24L132.45 16.24Q131.67 16.24 130.76 16.00Q129.85 15.76 129.06 15.35Q128.27 14.94 127.74 14.40Q127.22 13.86 127.22 13.26L127.22 13.26Q127.22 12.98 127.38 12.54Q127.54 12.11 127.96 11.63L127.96 11.63Q128.00 12.05 128.41 12.63Q128.83 13.20 129.65 13.69L129.65 13.69Q130.42 14.14 131.24 14.34Q132.06 14.55 132.78 14.55L132.78 14.55Q133.56 14.55 134.05 14.35Q134.54 14.15 134.82 13.88Q135.10 13.61 135.21 13.33Q135.32 13.05 135.34 12.88L135.34 12.88Q135.32 12.60 135.08 12.34Q134.83 12.08 134.42 11.84Q134.01 11.59 133.46 11.34Q132.92 11.09 132.33 10.84L132.33 10.84Q131.45 10.44 130.81 10.10Q130.17 9.76 129.76 9.40Q129.35 9.04 129.16 8.65Q128.97 8.26 128.97 7.76L128.97 7.76Q128.97 6.97 129.44 6.27Q129.92 5.57 130.82 5.21L130.82 5.21Q131.26 5.01 131.78 4.93Q132.29 4.84 132.78 4.84L132.78 4.84Q133.70 4.84 134.58 5.10Q135.46 5.35 136.35 5.74ZM146.33 6.69L146.33 6.69Q145.77 6.69 145.47 6.38Q145.17 6.06 145.17 5.61L145.17 5.61Q145.17 5.50 145.20 5.35Q145.24 5.19 145.29 5.08L145.29 5.08Q145.47 5.17 145.83 5.20Q146.19 5.24 146.66 5.24L146.66 5.24Q147.38 5.24 148.28 5.17Q149.18 5.11 150.01 5.04Q150.84 4.97 151.47 4.91Q152.10 4.84 152.28 4.84L152.28 4.84Q152.80 4.84 153.03 5.23Q153.26 5.61 153.37 6.26L153.37 6.26Q153.01 6.23 152.65 6.21Q152.29 6.19 152.04 6.19L152.04 6.19Q151.59 6.19 151.14 6.22Q150.68 6.24 150.22 6.30L150.22 6.30Q150.02 6.71 149.79 7.26Q149.55 7.81 149.32 8.41Q149.09 9.02 148.88 9.61Q148.67 10.21 148.51 10.68L148.51 10.68Q148.20 11.61 147.97 12.39Q147.74 13.17 147.57 13.85Q147.39 14.53 147.27 15.15Q147.14 15.76 147.04 16.35L147.04 16.35Q146.10 16.21 145.47 15.18L145.47 15.18Q145.59 14.74 145.75 14.23Q145.91 13.72 146.13 13.07Q146.34 12.42 146.64 11.59Q146.93 10.77 147.31 9.72L147.31 9.72Q147.45 9.32 147.60 8.90Q147.76 8.47 147.90 8.05Q148.05 7.63 148.17 7.24Q148.29 6.85 148.37 6.52L148.37 6.52Q147.78 6.59 147.26 6.64Q146.73 6.69 146.33 6.69ZM168.31 7.46L168.31 7.46Q168.31 8.13 168.01 8.73Q167.71 9.32 167.17 9.79Q166.64 10.26 165.93 10.58Q165.21 10.91 164.37 11.02L164.37 11.02Q164.58 11.65 164.88 12.31Q165.19 12.98 165.54 13.59Q165.89 14.21 166.26 14.73Q166.64 15.25 167.01 15.58L167.01 15.58Q166.94 15.72 166.80 15.86Q166.67 16.00 166.50 16.12Q166.32 16.24 166.13 16.32Q165.94 16.39 165.77 16.39L165.77 16.39Q165.47 16.39 165.19 16.10Q164.91 15.81 164.62 15.17Q164.33 14.53 164.02 13.52Q163.70 12.50 163.32 11.07L163.32 11.07Q163.17 11.07 163.02 11.07Q162.86 11.07 162.78 11.05L162.78 11.05Q162.68 10.99 162.57 10.85L162.57 10.85Q162.19 11.66 161.90 12.38Q161.60 13.09 161.37 13.76Q161.14 14.42 160.97 15.04Q160.79 15.67 160.66 16.31L160.66 16.31Q160.19 16.20 159.84 15.90Q159.49 15.61 159.18 15.08L159.18 15.08Q159.24 14.95 159.30 14.83Q159.36 14.71 159.46 14.50Q159.56 14.28 159.70 13.94Q159.85 13.61 160.10 13.05Q160.34 12.49 160.69 11.68Q161.03 10.86 161.52 9.70L161.52 9.70Q161.74 9.18 161.90 8.79Q162.06 8.40 162.19 8.04Q162.32 7.69 162.42 7.33Q162.53 6.97 162.64 6.51L162.64 6.51Q161.99 6.73 161.44 7.01Q160.89 7.28 160.52 7.59L160.52 7.59Q160.40 7.50 160.26 7.34Q160.13 7.17 160.02 6.96Q159.91 6.76 159.82 6.55Q159.74 6.34 159.73 6.17L159.73 6.17Q160.15 5.89 160.75 5.66Q161.36 5.42 162.05 5.24Q162.74 5.07 163.45 4.97Q164.16 4.87 164.78 4.87L164.78 4.87Q166.46 4.87 167.38 5.56Q168.31 6.26 168.31 7.46ZM164.72 6.02L164.89 6.29Q164.79 6.41 164.58 6.79Q164.37 7.17 164.10 7.69Q163.83 8.22 163.53 8.83Q163.23 9.45 162.95 10.05L162.95 10.05Q164.00 10.05 164.88 9.86Q165.76 9.66 166.40 9.30Q167.05 8.95 167.41 8.46Q167.76 7.98 167.76 7.39L167.76 7.39Q167.76 6.69 167.26 6.32Q166.75 5.95 165.70 5.95L165.70 5.95Q165.47 5.95 165.23 5.97Q164.99 5.99 164.72 6.02L164.72 6.02ZM181.80 4.98L181.80 4.98Q182.07 5.10 182.35 5.27Q182.63 5.45 182.87 5.63Q183.11 5.81 183.27 5.98Q183.43 6.16 183.44 6.27L183.44 6.27Q183.20 6.22 182.97 6.20Q182.73 6.17 182.53 6.17L182.53 6.17Q181.90 6.17 181.28 6.48Q180.66 6.79 180.10 7.32Q179.54 7.85 179.06 8.57Q178.58 9.28 178.24 10.09Q177.90 10.91 177.70 11.77Q177.51 12.64 177.51 13.48L177.51 13.48Q177.51 14.57 177.87 15.11Q178.23 15.64 178.93 15.64L178.93 15.64Q179.27 15.64 179.66 15.51Q180.05 15.37 180.46 15.13Q180.87 14.90 181.26 14.56Q181.65 14.22 181.99 13.82L181.99 13.82Q182.48 13.23 182.87 12.48Q183.26 11.73 183.53 10.89Q183.81 10.05 183.95 9.16Q184.10 8.27 184.10 7.42L184.10 7.42Q184.10 7.08 184.09 6.85Q184.07 6.62 184.05 6.46Q184.03 6.30 184.02 6.20Q184.00 6.10 183.99 6.03L183.99 6.03Q184.16 6.12 184.36 6.24Q184.56 6.36 184.74 6.59Q184.91 6.82 185.03 7.20Q185.15 7.57 185.15 8.18L185.15 8.18Q185.15 9.16 184.92 10.10Q184.69 11.05 184.28 11.90Q183.86 12.75 183.30 13.50Q182.74 14.24 182.10 14.80L182.10 14.80Q181.26 15.54 180.31 15.95Q179.35 16.35 178.47 16.35L178.47 16.35Q177.18 16.35 176.50 15.53Q175.83 14.71 175.83 13.12L175.83 13.12Q175.83 12.26 176.02 11.31Q176.20 10.36 176.55 9.44Q176.89 8.51 177.37 7.68Q177.84 6.85 178.41 6.21Q178.98 5.57 179.63 5.19Q180.28 4.82 180.96 4.82L180.96 4.82Q181.19 4.82 181.38 4.85Q181.58 4.89 181.80 4.98ZM195.73 10.74L195.73 10.74Q196.60 9.45 197.45 8.37Q198.30 7.28 199.07 6.50Q199.84 5.71 200.48 5.28Q201.12 4.84 201.60 4.84L201.60 4.84Q201.78 4.84 202.00 4.98Q202.22 5.12 202.41 5.35Q202.59 5.57 202.72 5.83Q202.85 6.09 202.85 6.33L202.85 6.33Q201.98 6.61 201.14 7.06Q200.31 7.52 199.55 8.11Q198.79 8.71 198.09 9.44Q197.40 10.16 196.84 10.99L196.84 10.99Q197.06 11.56 197.39 12.21Q197.72 12.87 198.11 13.47Q198.51 14.08 198.95 14.60Q199.40 15.12 199.86 15.43L199.86 15.43Q199.79 15.58 199.63 15.72Q199.46 15.86 199.26 15.98Q199.07 16.10 198.85 16.17Q198.63 16.24 198.45 16.24L198.45 16.24Q198.09 16.24 197.78 15.90Q197.47 15.55 197.16 14.86Q196.84 14.17 196.50 13.14Q196.15 12.11 195.73 10.74ZM193.62 16.31L193.62 16.31Q193.09 16.18 192.74 15.87Q192.39 15.55 192.09 15.08L192.09 15.08Q192.22 14.81 192.39 14.38Q192.57 13.94 192.82 13.31Q193.07 12.67 193.42 11.78Q193.77 10.89 194.24 9.70L194.24 9.70Q194.53 8.95 194.72 8.43Q194.91 7.91 195.04 7.41Q195.17 6.92 195.30 6.31Q195.43 5.71 195.59 4.79L195.59 4.79Q196.18 4.90 196.66 5.31Q197.15 5.71 197.50 6.29L197.50 6.29Q197.34 6.48 197.14 6.88Q196.94 7.28 196.69 7.84Q196.43 8.40 196.13 9.09Q195.82 9.77 195.48 10.54L195.48 10.54Q194.73 12.22 194.29 13.62Q193.86 15.01 193.62 16.31ZM214.40 9.21L214.40 9.21Q214.86 9.21 215.12 9.46Q215.38 9.72 215.38 10.16L215.38 10.16Q215.38 10.28 215.35 10.39Q215.33 10.51 215.31 10.60L215.31 10.60Q215.12 10.57 214.90 10.55Q214.68 10.53 214.37 10.53L214.37 10.53Q213.77 10.53 213.15 10.63Q212.53 10.74 211.97 10.81L211.97 10.81Q211.65 11.55 211.39 12.24Q211.12 12.94 210.93 13.51Q210.74 14.08 210.64 14.50Q210.53 14.92 210.52 15.13L210.52 15.13Q211.65 14.90 212.81 14.73Q213.96 14.56 215.24 14.48L215.24 14.48Q215.39 14.71 215.49 14.99Q215.60 15.27 215.60 15.60L215.60 15.60Q215.60 15.68 215.60 15.78Q215.60 15.88 215.57 15.97L215.57 15.97Q215.18 15.96 214.75 15.95Q214.31 15.95 213.61 15.95L213.61 15.95Q213.15 15.95 212.74 15.97Q212.32 15.99 211.90 16.03Q211.48 16.07 211.01 16.14Q210.55 16.21 209.96 16.31L209.96 16.31Q209.31 16.06 208.71 15.08L208.71 15.08Q208.95 14.57 209.38 13.54Q209.80 12.52 210.46 10.79L210.46 10.79Q209.83 10.60 209.64 10.09L209.64 10.09Q209.71 10.02 210.04 9.92Q210.38 9.81 210.87 9.70L210.87 9.70Q211.08 9.16 211.22 8.75Q211.37 8.34 211.48 7.99Q211.60 7.63 211.69 7.29Q211.78 6.94 211.86 6.54L211.86 6.54Q211.37 6.51 211.09 6.27Q210.81 6.02 210.81 5.63L210.81 5.63Q210.81 5.52 210.85 5.36Q210.88 5.21 210.92 5.10L210.92 5.10Q211.20 5.14 211.46 5.15Q211.72 5.17 212.14 5.17L212.14 5.17Q213.02 5.17 213.79 5.12Q214.56 5.07 215.19 5.01Q215.81 4.96 216.26 4.91Q216.71 4.86 216.94 4.86L216.94 4.86Q217.27 4.86 217.52 5.19Q217.77 5.53 217.90 6.15L217.90 6.15Q217.46 6.10 217.19 6.09Q216.92 6.08 216.71 6.08L216.71 6.08Q215.94 6.08 215.30 6.15Q214.66 6.23 214.07 6.31L214.07 6.31Q213.99 6.44 213.88 6.64Q213.78 6.83 213.61 7.18Q213.44 7.53 213.20 8.06Q212.95 8.60 212.60 9.39L212.60 9.39Q213.14 9.31 213.60 9.26Q214.07 9.21 214.40 9.21ZM237.24 6.69L237.24 6.69Q236.68 6.69 236.38 6.38Q236.08 6.06 236.08 5.61L236.08 5.61Q236.08 5.50 236.12 5.35Q236.15 5.19 236.21 5.08L236.21 5.08Q236.39 5.17 236.75 5.20Q237.10 5.24 237.58 5.24L237.58 5.24Q238.29 5.24 239.20 5.17Q240.10 5.11 240.93 5.04Q241.75 4.97 242.38 4.91Q243.01 4.84 243.19 4.84L243.19 4.84Q243.71 4.84 243.94 5.23Q244.17 5.61 244.29 6.26L244.29 6.26Q243.92 6.23 243.56 6.21Q243.21 6.19 242.96 6.19L242.96 6.19Q242.51 6.19 242.05 6.22Q241.60 6.24 241.14 6.30L241.14 6.30Q240.94 6.71 240.70 7.26Q240.46 7.81 240.23 8.41Q240.00 9.02 239.79 9.61Q239.58 10.21 239.43 10.68L239.43 10.68Q239.12 11.61 238.89 12.39Q238.66 13.17 238.48 13.85Q238.31 14.53 238.18 15.15Q238.06 15.76 237.96 16.35L237.96 16.35Q237.02 16.21 236.39 15.18L236.39 15.18Q236.50 14.74 236.66 14.23Q236.82 13.72 237.04 13.07Q237.26 12.42 237.55 11.59Q237.85 10.77 238.22 9.72L238.22 9.72Q238.36 9.32 238.52 8.90Q238.67 8.47 238.82 8.05Q238.97 7.63 239.08 7.24Q239.20 6.85 239.29 6.52L239.29 6.52Q238.70 6.59 238.17 6.64Q237.65 6.69 237.24 6.69ZM256.16 4.98L256.16 4.98Q256.42 5.10 256.70 5.27Q256.98 5.45 257.22 5.63Q257.46 5.81 257.62 5.98Q257.78 6.16 257.80 6.27L257.80 6.27Q257.56 6.22 257.32 6.20Q257.08 6.17 256.89 6.17L256.89 6.17Q256.26 6.17 255.63 6.48Q255.01 6.79 254.45 7.32Q253.89 7.85 253.41 8.57Q252.94 9.28 252.59 10.09Q252.25 10.91 252.06 11.77Q251.86 12.64 251.86 13.48L251.86 13.48Q251.86 14.57 252.22 15.11Q252.59 15.64 253.29 15.64L253.29 15.64Q253.62 15.64 254.02 15.51Q254.41 15.37 254.81 15.13Q255.22 14.90 255.61 14.56Q256.00 14.22 256.34 13.82L256.34 13.82Q256.83 13.23 257.22 12.48Q257.61 11.73 257.89 10.89Q258.16 10.05 258.31 9.16Q258.45 8.27 258.45 7.42L258.45 7.42Q258.45 7.08 258.44 6.85Q258.43 6.62 258.40 6.46Q258.38 6.30 258.37 6.20Q258.36 6.10 258.34 6.03L258.34 6.03Q258.51 6.12 258.71 6.24Q258.92 6.36 259.09 6.59Q259.27 6.82 259.38 7.20Q259.50 7.57 259.50 8.18L259.50 8.18Q259.50 9.16 259.27 10.10Q259.04 11.05 258.63 11.90Q258.22 12.75 257.66 13.50Q257.10 14.24 256.45 14.80L256.45 14.80Q255.61 15.54 254.66 15.95Q253.71 16.35 252.83 16.35L252.83 16.35Q251.54 16.35 250.86 15.53Q250.18 14.71 250.18 13.12L250.18 13.12Q250.18 12.26 250.37 11.31Q250.56 10.36 250.90 9.44Q251.24 8.51 251.72 7.68Q252.20 6.85 252.76 6.21Q253.33 5.57 253.98 5.19Q254.63 4.82 255.32 4.82L255.32 4.82Q255.54 4.82 255.74 4.85Q255.93 4.89 256.16 4.98ZM282.94 16.21L282.94 16.21Q282.91 16.23 282.88 16.23Q282.86 16.23 282.77 16.23L282.77 16.23Q282.58 16.23 282.32 16.16Q282.06 16.10 281.81 16.01Q281.57 15.92 281.39 15.81Q281.22 15.69 281.18 15.61L281.18 15.61Q281.16 15.41 281.16 15.20Q281.16 14.99 281.16 14.80L281.16 14.80Q281.16 13.23 281.39 11.52Q281.62 9.81 282.16 7.83L282.16 7.83Q282.21 7.63 282.27 7.33Q282.34 7.03 282.41 6.68L282.41 6.68Q282.07 6.94 281.61 7.53Q281.15 8.11 280.64 8.90Q280.13 9.69 279.61 10.63Q279.10 11.58 278.68 12.55Q278.26 13.52 277.96 14.48Q277.66 15.43 277.59 16.24L277.59 16.24Q276.92 16.04 276.66 15.85Q276.40 15.65 276.40 15.37L276.40 15.37Q276.40 15.12 276.56 14.66Q276.71 14.20 276.99 13.57Q277.27 12.94 277.68 12.16Q278.08 11.38 278.57 10.49L278.57 10.49Q279.13 9.46 279.67 8.57Q280.21 7.67 280.73 6.94Q281.25 6.22 281.74 5.68Q282.24 5.15 282.73 4.87L282.73 4.87Q282.93 4.87 283.25 4.97Q283.58 5.07 283.90 5.21Q284.21 5.35 284.46 5.49Q284.70 5.64 284.73 5.74L284.73 5.74Q284.54 6.13 284.27 6.92Q284.00 7.70 283.73 8.69Q283.46 9.69 283.21 10.80Q282.97 11.91 282.83 12.94L282.83 12.94Q283.15 12.17 283.58 11.33Q284.00 10.50 284.48 9.68Q284.96 8.86 285.45 8.09Q285.95 7.32 286.43 6.69Q286.90 6.05 287.31 5.57Q287.73 5.10 288.05 4.87L288.05 4.87Q288.25 4.87 288.57 4.97Q288.90 5.07 289.22 5.21Q289.53 5.35 289.78 5.49Q290.02 5.64 290.05 5.74L290.05 5.74Q289.60 6.54 289.27 7.69Q288.93 8.83 288.70 10.09Q288.47 11.35 288.35 12.59Q288.23 13.83 288.23 14.81L288.23 14.81Q288.23 15.13 288.23 15.48Q288.23 15.83 288.26 16.21L288.26 16.21Q288.06 16.21 287.79 16.16Q287.52 16.11 287.26 16.03Q287 15.95 286.79 15.84Q286.58 15.74 286.50 15.61L286.50 15.61Q286.48 15.41 286.48 15.20Q286.48 14.99 286.48 14.80L286.48 14.80Q286.48 13.23 286.71 11.52Q286.94 9.81 287.48 7.83L287.48 7.83Q287.53 7.63 287.60 7.29Q287.67 6.96 287.74 6.59L287.74 6.59Q287.35 6.79 286.85 7.34Q286.36 7.90 285.84 8.69Q285.33 9.48 284.84 10.44Q284.34 11.41 283.94 12.41Q283.54 13.41 283.27 14.40Q283.00 15.39 282.94 16.21ZM303.00 9.21L303.00 9.21Q303.46 9.21 303.72 9.46Q303.98 9.72 303.98 10.16L303.98 10.16Q303.98 10.28 303.96 10.39Q303.94 10.51 303.91 10.60L303.91 10.60Q303.73 10.57 303.51 10.55Q303.28 10.53 302.97 10.53L302.97 10.53Q302.37 10.53 301.76 10.63Q301.14 10.74 300.58 10.81L300.58 10.81Q300.26 11.55 299.99 12.24Q299.73 12.94 299.54 13.51Q299.35 14.08 299.24 14.50Q299.14 14.92 299.12 15.13L299.12 15.13Q300.26 14.90 301.41 14.73Q302.57 14.56 303.84 14.48L303.84 14.48Q304.00 14.71 304.10 14.99Q304.21 15.27 304.21 15.60L304.21 15.60Q304.21 15.68 304.21 15.78Q304.21 15.88 304.18 15.97L304.18 15.97Q303.79 15.96 303.35 15.95Q302.92 15.95 302.22 15.95L302.22 15.95Q301.76 15.95 301.34 15.97Q300.93 15.99 300.51 16.03Q300.09 16.07 299.62 16.14Q299.15 16.21 298.56 16.31L298.56 16.31Q297.92 16.06 297.32 15.08L297.32 15.08Q297.56 14.57 297.98 13.54Q298.41 12.52 299.07 10.79L299.07 10.79Q298.44 10.60 298.24 10.09L298.24 10.09Q298.31 10.02 298.65 9.92Q298.98 9.81 299.47 9.70L299.47 9.70Q299.68 9.16 299.83 8.75Q299.98 8.34 300.09 7.99Q300.20 7.63 300.29 7.29Q300.38 6.94 300.47 6.54L300.47 6.54Q299.98 6.51 299.70 6.27Q299.42 6.02 299.42 5.63L299.42 5.63Q299.42 5.52 299.45 5.36Q299.49 5.21 299.53 5.10L299.53 5.10Q299.81 5.14 300.07 5.15Q300.33 5.17 300.75 5.17L300.75 5.17Q301.63 5.17 302.40 5.12Q303.17 5.07 303.79 5.01Q304.42 4.96 304.86 4.91Q305.31 4.86 305.55 4.86L305.55 4.86Q305.87 4.86 306.12 5.19Q306.38 5.53 306.50 6.15L306.50 6.15Q306.07 6.10 305.79 6.09Q305.52 6.08 305.31 6.08L305.31 6.08Q304.54 6.08 303.90 6.15Q303.27 6.23 302.68 6.31L302.68 6.31Q302.60 6.44 302.49 6.64Q302.39 6.83 302.22 7.18Q302.05 7.53 301.81 8.06Q301.56 8.60 301.21 9.39L301.21 9.39Q301.74 9.31 302.21 9.26Q302.68 9.21 303.00 9.21ZM313.38 16.24L313.38 16.24Q312.70 16.04 312.44 15.85Q312.19 15.65 312.19 15.36L312.19 15.36Q312.19 15.13 312.31 14.73Q312.44 14.32 312.68 13.77Q312.93 13.22 313.27 12.54Q313.61 11.87 314.05 11.10L314.05 11.10Q313.68 11.09 313.40 11.08Q313.11 11.07 312.93 11.07L312.93 11.07Q313.01 10.86 313.40 10.71Q313.80 10.56 314.44 10.44L314.44 10.44Q314.99 9.53 315.61 8.71Q316.23 7.88 316.86 7.19Q317.49 6.50 318.12 5.97Q318.75 5.45 319.33 5.14L319.33 5.14Q319.34 5.04 319.35 4.97Q319.35 4.90 319.35 4.87L319.35 4.87Q319.55 4.87 319.88 4.97Q320.21 5.07 320.52 5.21Q320.84 5.35 321.08 5.49Q321.33 5.64 321.36 5.74L321.36 5.74Q320.89 6.55 320.45 8.17Q320.00 9.79 319.70 12.04L319.70 12.04Q319.63 12.60 319.58 13.31Q319.54 14.03 319.54 14.91L319.54 14.91Q319.54 15.22 319.54 15.54Q319.54 15.86 319.56 16.21L319.56 16.21Q319.54 16.23 319.51 16.23Q319.48 16.23 319.40 16.23L319.40 16.23Q319.20 16.23 318.94 16.16Q318.68 16.10 318.44 16.01Q318.19 15.92 318.02 15.81Q317.84 15.69 317.80 15.61L317.80 15.61Q317.79 15.43 317.79 15.25Q317.79 15.08 317.79 14.88L317.79 14.88Q317.79 14.01 317.85 13.12Q317.91 12.22 318.07 11.27L318.07 11.27Q317.87 11.26 317.55 11.23Q317.23 11.21 316.83 11.20Q316.43 11.19 315.97 11.16Q315.52 11.14 315.08 11.13L315.08 11.13Q314.75 11.76 314.45 12.38Q314.16 13.01 313.95 13.64L313.95 13.64Q313.71 14.31 313.56 14.98Q313.42 15.65 313.38 16.24ZM318.78 7.83L318.78 7.83Q318.84 7.63 318.91 7.29Q318.99 6.94 319.06 6.57L319.06 6.57Q318.71 6.69 318.28 7.03Q317.86 7.36 317.40 7.86Q316.95 8.36 316.48 8.98Q316.01 9.60 315.57 10.30L315.57 10.30Q316.75 10.21 318.25 10.18L318.25 10.18Q318.36 9.59 318.49 9.01Q318.63 8.43 318.78 7.83ZM329.98 16.24L329.98 16.24Q329.18 16.00 328.90 15.79Q328.62 15.57 328.62 15.19L328.62 15.19Q328.62 14.77 328.82 14.01Q329.01 13.24 329.33 12.31Q329.64 11.37 330.05 10.35Q330.46 9.32 330.88 8.39Q331.30 7.45 331.69 6.67Q332.09 5.89 332.40 5.46L332.40 5.46L332.30 4.87Q332.50 4.87 332.85 4.97Q333.20 5.07 333.56 5.21Q333.91 5.35 334.19 5.49Q334.46 5.64 334.49 5.74L334.49 5.74Q334.42 6.08 334.38 6.76Q334.33 7.43 334.33 8.20L334.33 8.20Q334.33 9.73 334.45 11.19Q334.57 12.66 335.01 14.17L335.01 14.17Q335.23 13.05 335.49 11.94Q335.75 10.82 336.03 9.81Q336.31 8.79 336.59 7.92Q336.87 7.06 337.13 6.40Q337.39 5.75 337.61 5.38Q337.83 5.01 338.02 4.98L338.02 4.98Q338.17 5.01 338.35 5.10Q338.53 5.19 338.70 5.32Q338.87 5.45 339.01 5.60Q339.15 5.75 339.23 5.91L339.23 5.91Q338.79 6.09 338.34 6.76Q337.90 7.43 337.50 8.39Q337.11 9.35 336.76 10.47Q336.42 11.59 336.16 12.68Q335.90 13.76 335.75 14.69Q335.61 15.61 335.59 16.17L335.59 16.17Q335.59 16.20 335.61 16.21L335.61 16.21Q335.57 16.23 335.52 16.23Q335.47 16.23 335.43 16.23L335.43 16.23Q334.78 16.23 334.28 16.07Q333.79 15.90 333.63 15.61L333.63 15.61Q333.34 14.43 333.14 13.34Q332.95 12.25 332.81 11.16Q332.68 10.07 332.61 8.95Q332.53 7.84 332.49 6.62L332.49 6.62Q332.22 7.04 331.93 7.72Q331.63 8.40 331.35 9.21Q331.07 10.02 330.81 10.92Q330.55 11.82 330.36 12.67Q330.16 13.52 330.05 14.29Q329.94 15.05 329.94 15.61L329.94 15.61Q329.94 15.90 329.94 16.03Q329.95 16.16 329.98 16.24ZM345.72 14.38L345.72 14.38Q345.72 13.87 345.88 13.07Q346.04 12.26 346.30 11.33Q346.56 10.40 346.89 9.43Q347.23 8.46 347.58 7.60Q347.93 6.75 348.26 6.10Q348.60 5.46 348.87 5.18L348.87 5.18Q349.01 5.19 349.24 5.29Q349.47 5.38 349.71 5.50Q349.94 5.63 350.14 5.78Q350.34 5.92 350.39 6.05L350.39 6.05Q349.99 6.41 349.59 7.15Q349.19 7.88 348.82 8.82Q348.45 9.76 348.12 10.80Q347.80 11.84 347.56 12.82Q347.33 13.80 347.19 14.64Q347.06 15.48 347.06 16.00L347.06 16.00Q347.06 16.24 347.10 16.30L347.10 16.30Q346.79 16.28 346.65 16.19Q346.51 16.10 346.44 16.00Q346.36 15.89 346.30 15.79Q346.23 15.68 346.11 15.62L346.11 15.62Q346.01 15.58 345.94 15.43Q345.87 15.27 345.82 15.09Q345.77 14.90 345.74 14.70Q345.72 14.50 345.72 14.38ZM357.95 16.24L357.95 16.24Q357.15 16.00 356.87 15.79Q356.59 15.57 356.59 15.19L356.59 15.19Q356.59 14.77 356.79 14.01Q356.99 13.24 357.30 12.31Q357.62 11.37 358.02 10.35Q358.43 9.32 358.85 8.39Q359.27 7.45 359.67 6.67Q360.07 5.89 360.37 5.46L360.37 5.46L360.28 4.87Q360.47 4.87 360.82 4.97Q361.17 5.07 361.53 5.21Q361.89 5.35 362.16 5.49Q362.43 5.64 362.46 5.74L362.46 5.74Q362.39 6.08 362.35 6.76Q362.31 7.43 362.31 8.20L362.31 8.20Q362.31 9.73 362.43 11.19Q362.54 12.66 362.98 14.17L362.98 14.17Q363.20 13.05 363.46 11.94Q363.72 10.82 364.00 9.81Q364.28 8.79 364.56 7.92Q364.84 7.06 365.10 6.40Q365.36 5.75 365.58 5.38Q365.81 5.01 365.99 4.98L365.99 4.98Q366.14 5.01 366.32 5.10Q366.51 5.19 366.67 5.32Q366.84 5.45 366.98 5.60Q367.12 5.75 367.21 5.91L367.21 5.91Q366.76 6.09 366.32 6.76Q365.88 7.43 365.48 8.39Q365.08 9.35 364.74 10.47Q364.39 11.59 364.13 12.68Q363.87 13.76 363.73 14.69Q363.58 15.61 363.57 16.17L363.57 16.17Q363.57 16.20 363.58 16.21L363.58 16.21Q363.54 16.23 363.49 16.23Q363.44 16.23 363.40 16.23L363.40 16.23Q362.75 16.23 362.26 16.07Q361.76 15.90 361.61 15.61L361.61 15.61Q361.31 14.43 361.12 13.34Q360.92 12.25 360.79 11.16Q360.65 10.07 360.58 8.95Q360.50 7.84 360.46 6.62L360.46 6.62Q360.19 7.04 359.90 7.72Q359.60 8.40 359.32 9.21Q359.04 10.02 358.79 10.92Q358.53 11.82 358.33 12.67Q358.13 13.52 358.02 14.29Q357.91 15.05 357.91 15.61L357.91 15.61Q357.91 15.90 357.92 16.03Q357.92 16.16 357.95 16.24ZM381.02 10.72L381.02 10.72Q381.39 10.72 381.60 10.98Q381.81 11.23 381.81 11.68L381.81 11.68Q381.81 11.79 381.79 11.91Q381.78 12.03 381.75 12.11L381.75 12.11Q381.46 12.04 381.11 12.03L381.11 12.03Q381.02 12.64 380.66 13.32Q380.30 14 379.78 14.60Q379.26 15.19 378.64 15.64Q378.03 16.09 377.43 16.24L377.43 16.24Q375.55 16.20 374.69 15.27Q373.83 14.34 373.83 12.36L373.83 12.36Q373.83 10.92 374.36 9.57Q374.89 8.22 375.77 7.17Q376.66 6.12 377.80 5.48Q378.94 4.84 380.17 4.84L380.17 4.84Q381.14 4.84 381.68 5.25Q382.21 5.66 382.21 6.40L382.21 6.40Q382.21 6.89 381.98 7.31Q381.75 7.73 381.22 8.22L381.22 8.22Q380.90 8.12 380.66 7.88Q380.42 7.63 380.37 7.31L380.37 7.31Q380.84 6.96 381.04 6.66Q381.23 6.37 381.23 5.96L381.23 5.96Q381.23 5.32 380.46 5.32L380.46 5.32Q379.83 5.32 379.11 5.79Q378.39 6.26 377.66 7.14L377.66 7.14Q376.63 8.39 376.15 9.71Q375.68 11.03 375.68 12.68L375.68 12.68Q375.68 13.30 375.80 13.80Q375.93 14.31 376.14 14.69Q376.35 15.06 376.64 15.29Q376.92 15.51 377.26 15.54L377.26 15.54Q377.71 15.44 378.15 15.09Q378.60 14.73 378.97 14.25Q379.34 13.76 379.60 13.21Q379.86 12.66 379.92 12.15L379.92 12.15Q379.53 12.24 379.17 12.31Q378.81 12.39 378.49 12.39L378.49 12.39Q378.07 12.39 377.76 12.18Q377.44 11.97 377.33 11.61L377.33 11.61Q377.58 11.47 378.06 11.31Q378.55 11.16 379.09 11.03Q379.64 10.89 380.16 10.81Q380.69 10.72 381.02 10.72ZM389.70 15.71L389.70 15.71Q389.48 15.68 389.24 15.52Q388.99 15.36 388.92 15.16L388.92 15.16Q388.92 14.99 388.97 14.73Q389.02 14.46 389.09 14.19Q389.16 13.92 389.23 13.67Q389.30 13.43 389.33 13.30L389.33 13.30Q389.49 13.30 389.75 13.38Q390.01 13.47 390.29 13.62Q390.56 13.76 390.80 13.95Q391.05 14.14 391.17 14.34L391.17 14.34Q391.05 14.62 390.85 14.87Q390.66 15.12 390.44 15.31Q390.22 15.50 390.03 15.60Q389.83 15.71 389.70 15.71Z"></path></g></svg>