<svg data-v-423bf9ae="" xmlns="http://www.w3.org/2000/svg" viewBox="0 0 93.22448558031533 60" class="font"><!----><!----><!----><g data-v-423bf9ae="" id="bee0b13a-7902-4436-8d34-4680ea448711" fill="black" transform="matrix(2.040816220610938,0,0,2.040816220610938,8.621860843049944e-7,5.693878131327875)"><path d="M0 7.45L0 7.45Q0 5.64 0.41 4.25Q0.83 2.86 1.53 1.91Q2.23 0.97 3.14 0.48Q4.06 0 5.07 0L5.07 0L6.37 0.08Q6.75 0.08 6.87 0.04L6.87 0.04Q6.94 0.03 6.99 0L6.99 0L7.06 0Q6.94 0.29 6.85 0.59Q6.75 0.90 6.66 1.23Q6.58 1.57 6.52 1.96Q6.47 2.35 6.44 2.84L6.44 2.84L6.29 2.84Q6.29 2.58 6.16 2.20Q6.03 1.82 5.75 1.47Q5.47 1.12 5.00 0.88Q4.52 0.63 3.84 0.63L3.84 0.63Q2.67 0.63 2.14 2.02Q1.61 3.40 1.61 6.06L1.61 6.06Q1.61 6.78 1.70 7.57Q1.79 8.36 1.98 9.13Q2.17 9.91 2.46 10.62Q2.74 11.33 3.14 11.87Q3.53 12.40 4.03 12.73Q4.52 13.05 5.14 13.05L5.14 13.05Q5.66 13.05 5.99 12.90Q6.31 12.75 6.51 12.56L6.51 12.56Q6.73 12.33 6.83 12.05L6.83 12.05L6.99 12.21Q6.75 12.71 6.33 13.09L6.33 13.09Q5.96 13.43 5.40 13.70Q4.83 13.97 3.99 13.97L3.99 13.97Q3.61 13.97 3.16 13.86Q2.72 13.75 2.27 13.46Q1.83 13.17 1.42 12.70Q1.01 12.22 0.69 11.49Q0.38 10.77 0.19 9.77Q0 8.78 0 7.45ZM9.67 9.66L9.67 9.66Q9.67 10.08 9.83 10.59Q10.00 11.10 10.37 11.54Q10.75 11.98 11.36 12.29Q11.97 12.59 12.85 12.59L12.85 12.59Q13.31 12.59 13.58 12.46Q13.85 12.33 13.97 12.14Q14.10 11.96 14.13 11.75Q14.17 11.54 14.17 11.35L14.17 11.35Q14.17 10.75 13.94 10.16Q13.71 9.58 13.30 9.11Q12.89 8.65 12.34 8.37Q11.79 8.09 11.14 8.09L11.14 8.09Q10.72 8.09 10.44 8.25Q10.16 8.41 9.99 8.66Q9.81 8.90 9.74 9.18Q9.67 9.45 9.67 9.66ZM12.75 7L12.75 7Q13.17 7 13.66 7.18Q14.14 7.36 14.55 7.73Q14.97 8.09 15.23 8.66Q15.50 9.23 15.50 9.98L15.50 9.98Q15.50 10.42 15.29 10.88Q15.09 11.34 14.76 11.79Q14.43 12.24 14.01 12.63Q13.58 13.03 13.13 13.34Q12.67 13.64 12.21 13.82Q11.76 14 11.38 14L11.38 14Q10.81 14 10.28 13.76Q9.76 13.52 9.35 13.12Q8.95 12.71 8.70 12.19Q8.46 11.66 8.46 11.07L8.46 11.07Q8.46 10.28 8.89 9.54Q9.32 8.81 9.97 8.24Q10.61 7.67 11.36 7.34Q12.11 7 12.75 7ZM14.70 3.33L14.70 3.33Q14.70 2.83 15.10 2.33Q15.50 1.83 16.12 1.39Q16.74 0.95 17.50 0.60Q18.26 0.25 18.96 0.04L18.96 0.04Q18.42 0.21 17.93 0.48Q17.44 0.74 17.07 1.06Q16.69 1.37 16.46 1.71Q16.23 2.06 16.23 2.38L16.23 2.38Q16.23 2.76 16.47 3.18Q16.72 3.60 17.10 4.03Q17.49 4.45 17.97 4.86Q18.45 5.26 18.93 5.61Q19.42 5.95 19.84 6.22Q20.27 6.50 20.57 6.64L20.57 6.64Q20.85 6.78 21.21 6.92Q21.57 7.07 21.96 7.26Q22.34 7.45 22.72 7.69Q23.10 7.94 23.39 8.27Q23.69 8.61 23.87 9.04Q24.05 9.48 24.05 10.05L24.05 10.05Q24.05 10.51 23.91 10.91Q23.77 11.30 23.53 11.63Q23.30 11.97 23.00 12.26Q22.69 12.54 22.36 12.81L22.36 12.81Q21.69 13.34 21.07 13.68Q20.45 14.01 19.80 14.01L19.80 14.01Q19.25 14.01 18.79 13.79Q18.33 13.57 18.00 13.21Q17.68 12.85 17.50 12.41Q17.32 11.97 17.32 11.54L17.32 11.54Q17.32 10.92 17.46 10.51Q17.60 10.09 17.83 9.81Q18.06 9.53 18.35 9.34Q18.65 9.14 18.96 8.96L18.96 8.96Q19.24 8.74 19.52 8.57Q19.81 8.40 20.15 8.29L20.15 8.29Q19.64 8.04 19.17 7.78Q18.69 7.52 18.33 7.24L18.33 7.24Q18.06 7.06 17.69 6.80Q17.32 6.55 16.92 6.25Q16.52 5.95 16.12 5.60Q15.72 5.25 15.41 4.88Q15.09 4.51 14.90 4.12Q14.70 3.72 14.70 3.33ZM22.48 10.91L22.48 10.91Q22.48 10.47 22.31 10.12Q22.13 9.76 21.84 9.46Q21.55 9.16 21.15 8.90Q20.76 8.65 20.33 8.43L20.33 8.43Q20.08 8.47 19.80 8.62Q19.53 8.76 19.31 9.00Q19.10 9.24 18.95 9.55Q18.80 9.87 18.80 10.25L18.80 10.25Q18.80 10.70 18.97 11.12Q19.14 11.55 19.46 11.89Q19.78 12.22 20.25 12.43Q20.72 12.63 21.34 12.63L21.34 12.63Q21.81 12.63 22.06 12.51Q22.30 12.39 22.39 12.17Q22.48 11.94 22.48 11.62Q22.48 11.30 22.48 10.91ZM30.37 12.49L30.37 12.49Q30.77 12.49 31.13 12.38Q31.49 12.28 31.75 12.14L31.75 12.14Q32.06 11.98 32.33 11.79L32.33 11.79Q31.95 12.42 31.42 12.91L31.42 12.91Q30.97 13.33 30.29 13.67Q29.61 14.01 28.71 14.01L28.71 14.01Q28.07 14.01 27.48 13.79Q26.89 13.57 26.44 13.15Q25.98 12.73 25.72 12.12Q25.45 11.51 25.45 10.75L25.45 10.75Q25.45 10.07 25.67 9.54Q25.89 9.02 26.24 8.62Q26.59 8.23 27.02 7.97Q27.45 7.71 27.87 7.55L27.87 7.55Q29.22 7 29.71 7L29.71 7Q30.23 7 30.61 7.17Q31.00 7.35 31.28 7.56L31.28 7.56Q31.58 7.81 31.82 8.12L31.82 8.12L27.20 9.98Q27.30 10.57 27.48 11.03Q27.66 11.49 28.01 11.82Q28.36 12.14 28.92 12.31Q29.48 12.49 30.37 12.49ZM28.10 7.81L28.10 7.81Q27.90 7.81 27.72 7.92Q27.54 8.02 27.39 8.19Q27.24 8.36 27.17 8.57Q27.09 8.78 27.10 8.99L27.10 8.99Q27.10 9.21 27.11 9.42Q27.12 9.63 27.16 9.84L27.16 9.84L29.51 8.76Q29.37 8.50 29.16 8.29L29.16 8.29Q28.98 8.11 28.71 7.96Q28.45 7.81 28.10 7.81ZM33.96 6.99L33.96 6.99Q33.96 5.42 33.96 4.28Q33.96 3.14 33.95 2.32Q33.94 1.50 33.88 0.95Q33.82 0.41 33.73 0.01L33.73 0.01Q34.69 0.01 35.36-0.34Q36.02-0.70 36.58-1.18L36.58-1.18Q36.30-0.77 36.11-0.45Q35.91-0.13 35.84 0.10L35.84 0.10Q35.69 0.59 35.60 1.33Q35.52 2.07 35.48 2.98Q35.43 3.89 35.43 4.91Q35.42 5.94 35.42 6.99L35.42 6.99Q35.42 8.05 35.38 8.79Q35.34 9.52 35.31 10.04Q35.29 10.57 35.31 10.93Q35.34 11.28 35.46 11.59L35.46 11.59Q35.56 11.79 35.67 11.97Q35.78 12.15 35.94 12.31Q36.09 12.47 36.29 12.58Q36.48 12.68 36.75 12.70L36.75 12.70Q36.22 13.08 35.80 13.40Q35.39 13.72 35.06 14.04L35.06 14.04Q34.79 13.90 34.58 13.69Q34.37 13.47 34.22 13.23Q34.08 12.99 33.98 12.75Q33.89 12.52 33.87 12.33L33.87 12.33Q33.84 11.80 33.85 11.30Q33.87 10.79 33.89 10.19Q33.92 9.59 33.94 8.82Q33.96 8.05 33.96 6.99ZM44.51-2.79L44.51-2.79Q44.95-2.79 45.23-2.71Q45.51-2.63 45.68-2.58L45.68-2.58Q45.46-2.30 45.19-1.90Q44.93-1.51 44.87-1.12L44.87-1.12Q44.70-1.27 44.45-1.41L44.45-1.41Q44.23-1.53 43.87-1.62Q43.51-1.71 42.99-1.71L42.99-1.71Q42.28-1.71 41.80-1.58Q41.33-1.44 41.03-1.22Q40.74-0.99 40.59-0.72Q40.43-0.45 40.38-0.17L40.38-0.17Q40.32 0.03 40.26 0.58Q40.21 1.13 40.16 1.88Q40.11 2.63 40.07 3.50Q40.03 4.37 40.00 5.19Q39.97 6.02 39.97 6.72Q39.97 7.42 40.01 7.84L40.01 7.84Q40.45 8.01 40.95 8.06Q41.45 8.12 41.87 8.12L41.87 8.12Q42.36 8.12 42.85 8.06L42.85 8.06Q42.38 8.25 41.89 8.40L41.89 8.40Q41.47 8.53 40.97 8.64Q40.47 8.75 40.01 8.78L40.01 8.78Q40.01 9.20 40.00 10.19Q39.98 11.19 39.96 12.52Q39.93 13.85 39.89 15.41Q39.86 16.97 39.83 18.54L39.83 18.54Q39.76 22.22 39.66 26.61L39.66 26.61Q39.49 22.04 39.37 18.28L39.37 18.28Q39.33 17.22 39.29 16.16Q39.26 15.09 39.22 14.11Q39.19 13.12 39.16 12.24Q39.13 11.35 39.12 10.65Q39.10 9.95 39.09 9.46Q39.07 8.97 39.07 8.78L39.07 8.78Q38.82 8.78 38.54 8.71Q38.26 8.65 38.02 8.57L38.02 8.57Q37.74 8.47 37.48 8.34L37.48 8.34Q37.77 8.37 38.05 8.33L38.05 8.33Q38.29 8.30 38.57 8.22Q38.85 8.15 39.07 7.98L39.07 7.98Q39.06 7.50 39.02 6.85Q38.98 6.20 38.93 5.45Q38.88 4.70 38.82 3.91Q38.77 3.11 38.72 2.35Q38.67 1.58 38.63 0.90Q38.58 0.21 38.57-0.32L38.57-0.32Q38.75-0.32 38.94-0.39Q39.13-0.46 39.37-0.61Q39.61-0.76 39.92-0.99Q40.24-1.22 40.67-1.55L40.67-1.55Q41.54-2.21 42.48-2.50Q43.41-2.79 44.51-2.79Z"></path></g><!----><!----></svg>