<svg width="90" height="90" viewBox="0 0 90 90" fill="none" xmlns="http://www.w3.org/2000/svg">
<path d="M11.3315 40.3931L40.3931 11.3287L42.3815 13.3172L13.32 42.3844L11.3315 40.3931ZM48.1922 77.2594L77.2594 48.1922L79.2478 50.1806L50.1862 79.2422L48.1922 77.2594ZM11.3315 50.1778L13.32 48.1894L42.3815 77.2537L40.3931 79.2422L11.3315 50.1778ZM48.1922 13.3172L50.1834 11.3287L79.245 40.3875L77.2565 42.3759L48.1922 13.3172Z" fill="url(#paint0_linear_14_5)"/>
<path d="M45 3.97688L49.7334 8.71031L45 13.4409L40.2666 8.7075L45 3.97688ZM45 0L36.2897 8.71031L45 17.4206L53.7103 8.71031L45 0ZM45 76.5591L49.7334 81.2925L45 86.0231L40.2666 81.2897L45 76.5591ZM45 72.5794L36.2897 81.2897L45 90L53.7103 81.2897L45 72.5794ZM8.71031 40.2666L13.4409 45L8.7075 49.7334L3.97688 45L8.71031 40.2666ZM8.71031 36.2897L0 45L8.71031 53.7103L17.4206 45L8.71031 36.2897ZM81.2897 40.2666L86.0231 45L81.2897 49.7334L76.5591 45L81.2897 40.2666ZM81.2897 36.2897L72.5794 45L81.2897 53.7103L90 45L81.2897 36.2897Z" fill="url(#paint1_linear_14_5)"/>
<defs>
<linearGradient id="paint0_linear_14_5" x1="5.48214" y1="15.0562" x2="6160.78" y2="2885.32" gradientUnits="userSpaceOnUse">
<stop stop-color="#E98E0D"/>
<stop offset="1" stop-color="#1536F1"/>
</linearGradient>
<linearGradient id="paint1_linear_14_5" x1="0" y1="0" x2="8156.77" y2="3803.56" gradientUnits="userSpaceOnUse">
<stop stop-color="#E98E0D"/>
<stop offset="1" stop-color="#1536F1"/>
</linearGradient>
</defs>
</svg>
